<svg width="20" height="20" viewBox="0 0 20 20" fill="none" xmlns="http://www.w3.org/2000/svg">
<path d="M2.93968 17.8317L1.36874 0.211243H18.6312L17.0587 17.8291L9.98952 19.7889L2.93968 17.8317Z" fill="#1572B6"/>
<path d="M10.0002 18.2909L15.7125 16.7072L17.0564 1.65186H10.0002V18.2909Z" fill="#33A9DC"/>
<path d="M10.0002 8.03581H12.8598L13.0573 5.82284H10.0002V3.66174H15.4192L15.3673 4.24159L14.8361 10.1969H10.0002V8.03581Z" fill="white"/>
<path d="M10.013 13.6483L10.0034 13.6511L7.59671 13.0012L7.44281 11.2776H5.27374L5.5764 14.6709L10.0031 15.8995L10.013 15.8967V13.6483Z" fill="#EBEBEB"/>
<path d="M12.6761 10.1055L12.4158 12.9995L10.0055 13.6502V15.8986L14.4358 14.6708L14.4683 14.3056L14.8442 10.1055H12.6761Z" fill="white"/>
<path d="M10.0075 3.66174V5.82284H4.78749L4.74421 5.33721L4.64577 4.24159L4.59406 3.66174H10.0075ZM10.0001 8.03612V10.1972H7.62374L7.58046 9.71159L7.48187 8.61596L7.43031 8.03612H10.0001Z" fill="#EBEBEB"/>
</svg>
