<svg width="20" height="20" viewBox="0 0 20 20" fill="none" xmlns="http://www.w3.org/2000/svg">
<path d="M7.5 2.5H10V7.5H7.5C6.83696 7.5 6.20107 7.23661 5.73223 6.76777C5.26339 6.29893 5 5.66304 5 5C5 4.33696 5.26339 3.70107 5.73223 3.23223C6.20107 2.76339 6.83696 2.5 7.5 2.5Z" fill="#F4511E"/>
<path d="M12.5 7.5H10V2.5H12.5C13.163 2.5 13.7989 2.76339 14.2678 3.23223C14.7366 3.70107 15 4.33696 15 5C15 5.66304 14.7366 6.29893 14.2678 6.76777C13.7989 7.23661 13.163 7.5 12.5 7.5Z" fill="#FF8A65"/>
<path d="M10 10C10 11.3807 11.1193 12.5 12.5 12.5C13.8807 12.5 15 11.3807 15 10C15 8.61929 13.8807 7.5 12.5 7.5C11.1193 7.5 10 8.61929 10 10Z" fill="#29B6F6"/>
<path d="M7.5 7.5H10V12.5H7.5C6.83696 12.5 6.20107 12.2366 5.73223 11.7678C5.26339 11.2989 5 10.663 5 10C5 9.33696 5.26339 8.70107 5.73223 8.23223C6.20107 7.76339 6.83696 7.5 7.5 7.5Z" fill="#7C4DFF"/>
<path d="M7.5 12.5H10V15C10 15.663 9.73661 16.2989 9.26777 16.7678C8.79893 17.2366 8.16304 17.5 7.5 17.5C6.83696 17.5 6.20107 17.2366 5.73223 16.7678C5.26339 16.2989 5 15.663 5 15C5 14.337 5.26339 13.7011 5.73223 13.2322C6.20107 12.7634 6.83696 12.5 7.5 12.5Z" fill="#00E676"/>
</svg>
