<svg width="20" height="20" viewBox="0 0 20 20" fill="none" xmlns="http://www.w3.org/2000/svg">
<path d="M7.44014 15.3313C7.44014 15.3313 6.6953 15.7647 7.97092 15.9109C9.51655 16.0875 10.3064 16.0622 12.0092 15.7403C12.0092 15.7403 12.4578 16.0208 13.0831 16.2639C9.26452 17.8999 4.44124 16.1691 7.44014 15.3313ZM6.97327 13.1961C6.97327 13.1961 6.13764 13.8147 7.41436 13.9469C9.06545 14.1174 10.369 14.1313 12.6259 13.6969C12.6259 13.6969 12.9373 14.0133 13.4278 14.1861C8.81186 15.5361 3.67061 14.2924 6.97327 13.1961Z" fill="#0074BD"/>
<path d="M10.9066 9.57359C11.848 10.6572 10.6597 11.6314 10.6597 11.6314C10.6597 11.6314 13.0486 10.3984 11.9517 8.85375C10.9269 7.4139 10.1412 6.69875 14.3947 4.23187C14.3947 4.23203 7.71796 5.89906 10.9066 9.57359Z" fill="#EA2D2E"/>
<path d="M15.9567 16.9108C15.9567 16.9108 16.5081 17.3655 15.3492 17.7169C13.1458 18.3844 6.17641 18.5856 4.24078 17.7436C3.54532 17.4408 4.85 17.0209 5.26047 16.9323C5.68844 16.8397 5.93282 16.8566 5.93282 16.8566C5.15891 16.3117 0.930784 17.9269 3.78547 18.3902C11.57 19.652 17.9756 17.8219 15.9567 16.9108ZM7.79875 10.9834C7.79875 10.9834 4.25407 11.8255 6.5436 12.1316C7.51047 12.2609 9.43703 12.2312 11.2328 12.0806C12.7 11.9573 14.1723 11.6941 14.1723 11.6941C14.1723 11.6941 13.6555 11.9158 13.2811 12.1711C9.68078 13.1181 2.72735 12.677 4.72938 11.7089C6.42188 10.8903 7.79875 10.9834 7.79875 10.9834ZM14.1577 14.5377C17.8172 12.6366 16.125 10.8095 14.9439 11.0556C14.6552 11.1158 14.5256 11.1681 14.5256 11.1681C14.5256 11.1681 14.6331 10.9995 14.8381 10.927C17.1745 10.1059 18.9711 13.3494 14.0845 14.6341C14.0845 14.6337 14.1406 14.583 14.1577 14.5377Z" fill="#0074BD"/>
<path d="M11.9517 0.247986C11.9517 0.247986 13.978 2.27549 10.0294 5.3922C6.86281 7.89314 9.30734 9.31877 10.0283 10.9483C8.17968 9.28064 6.82375 7.81236 7.73328 6.44595C9.0689 4.44064 12.7691 3.46799 11.9517 0.247986Z" fill="#EA2D2E"/>
<path d="M8.15844 19.6908C11.6703 19.9153 17.0647 19.5658 17.1923 17.9039C17.1923 17.9039 16.9469 18.5339 14.2897 19.0338C11.2919 19.5981 7.59375 19.5324 5.40109 19.1703C5.40109 19.1705 5.85031 19.5424 8.15844 19.6908Z" fill="#0074BD"/>
</svg>
