<svg width="52" height="17" viewBox="0 0 52 17" fill="none" xmlns="http://www.w3.org/2000/svg">
<path d="M2.15413 16.888C1.62613 16.888 1.17812 16.776 0.874125 16.664L1.16212 15.544C1.38612 15.624 1.67413 15.704 1.99413 15.704C2.85813 15.704 3.06613 15.048 3.06613 13.992V4.312H4.52213V13.992C4.52213 15.768 3.86613 16.888 2.15413 16.888ZM3.78613 2.52C3.21013 2.52 2.81013 2.136 2.81013 1.544C2.81013 0.983999 3.21013 0.599999 3.78613 0.599999C4.34613 0.599999 4.74613 0.983999 4.74613 1.544C4.74613 2.136 4.34613 2.52 3.78613 2.52ZM11.936 11.992C14.032 11.992 15.424 10.088 15.424 7.096C15.424 4.152 14.032 2.344 11.936 2.344C9.824 2.344 8.448 4.152 8.448 7.096C8.448 10.088 9.824 11.992 11.936 11.992ZM15.52 15.944C13.36 15.944 11.872 14.776 11.216 13.16C8.656 12.808 6.928 10.536 6.928 7.096C6.928 3.336 8.992 1.048 11.936 1.048C14.88 1.048 16.944 3.336 16.944 7.096C16.944 10.472 15.28 12.712 12.8 13.144C13.328 14.184 14.416 14.712 15.68 14.712C16.208 14.712 16.608 14.632 16.912 14.536L17.2 15.688C16.848 15.816 16.224 15.944 15.52 15.944ZM21.875 13.208C20.051 13.208 19.235 12.024 19.235 9.816V4.312H20.691V9.64C20.691 11.256 21.171 11.944 22.323 11.944C23.219 11.944 23.843 11.512 24.675 10.472V4.312H26.131V13H24.915L24.803 11.64H24.755C23.939 12.584 23.075 13.208 21.875 13.208ZM32.5698 13.208C30.2658 13.208 28.4098 11.528 28.4098 8.664C28.4098 5.848 30.3138 4.088 32.3298 4.088C34.5378 4.088 35.7858 5.688 35.7858 8.168C35.7858 8.488 35.7538 8.792 35.7218 9H29.8658C29.9618 10.856 31.0978 12.04 32.7458 12.04C33.5938 12.04 34.2818 11.784 34.9218 11.352L35.4498 12.312C34.6818 12.808 33.7538 13.208 32.5698 13.208ZM29.8498 7.944H34.5058C34.5058 6.2 33.7058 5.256 32.3458 5.256C31.1138 5.256 30.0258 6.248 29.8498 7.944ZM37.9251 13V4.312H39.1251L39.2531 5.896H39.3011C39.9091 4.792 40.7891 4.088 41.7651 4.088C42.1491 4.088 42.4211 4.136 42.6931 4.28L42.4211 5.56C42.1331 5.448 41.9251 5.416 41.5731 5.416C40.8531 5.416 39.9571 5.928 39.3811 7.416V13H37.9251ZM44.741 16.744C44.325 16.744 43.989 16.68 43.717 16.568L44.005 15.4C44.181 15.464 44.437 15.544 44.661 15.544C45.653 15.544 46.277 14.744 46.629 13.672L46.821 13.016L43.333 4.312H44.853L46.629 9.144C46.885 9.896 47.189 10.792 47.461 11.576H47.541C47.781 10.792 48.037 9.912 48.277 9.144L49.829 4.312H51.253L47.973 13.72C47.381 15.432 46.469 16.744 44.741 16.744Z" fill="#0B0B0B"/>
</svg>
