<svg width="24" height="16" viewBox="0 0 24 16" fill="none" xmlns="http://www.w3.org/2000/svg">
<path d="M16.405 1.61987C16.29 1.61987 16.212 1.63361 16.131 1.65227V1.66503H16.145C16.199 1.76714 16.291 1.84175 16.359 1.93306C16.413 2.03811 16.459 2.14316 16.513 2.24723L16.527 2.2325C16.621 2.1677 16.667 2.06363 16.667 1.90557C16.627 1.85942 16.621 1.81328 16.587 1.76812C16.547 1.70234 16.461 1.66994 16.407 1.61791L16.405 1.61987ZM5.77 14.5735H4.843C4.81693 13.1271 4.72685 11.6825 4.573 10.2438H4.565L3.155 14.5735H2.45L1.05 10.2438H1.04C0.930493 11.6848 0.865464 13.1287 0.845 14.5735H0C0.055 12.6433 0.192 10.8329 0.41 9.14423H1.56L2.895 13.1342H2.903L4.25 9.14423H5.345C5.587 11.1225 5.729 12.9339 5.773 14.5735H5.77ZM9.787 10.5678C9.409 12.5756 8.911 14.0364 8.295 14.9466C7.813 15.6495 7.285 16 6.712 16C6.559 16 6.372 15.9548 6.146 15.8645V15.3795C6.256 15.3962 6.386 15.405 6.532 15.405C6.8 15.405 7.015 15.3314 7.179 15.1871C7.376 15.0104 7.474 14.812 7.474 14.5931C7.474 14.4409 7.397 14.1317 7.244 13.6663L6.23 10.5678H7.14L7.867 12.8848C8.031 13.411 8.1 13.7782 8.072 13.9874C8.472 12.9427 8.75 11.8009 8.907 10.5678H9.787ZM22.112 14.5735H19.482V9.14423H20.367V13.9059H22.112V14.5735ZM18.792 14.706L17.776 14.2151C17.866 14.1405 17.953 14.06 18.031 13.9697C18.464 13.4729 18.679 12.7346 18.679 11.7577C18.679 9.96107 17.961 9.06176 16.524 9.06176C15.82 9.06176 15.27 9.28953 14.874 9.74606C14.444 10.2448 14.228 10.9792 14.228 11.9502C14.228 12.9044 14.418 13.6054 14.802 14.0512C15.152 14.4537 15.679 14.655 16.385 14.655C16.649 14.655 16.891 14.6226 17.11 14.5587L18.435 15.3167L18.795 14.706H18.792ZM15.5 13.4866C15.275 13.1332 15.163 12.5638 15.163 11.7823C15.163 10.4147 15.587 9.73035 16.433 9.73035C16.876 9.73035 17.203 9.89431 17.41 10.2212C17.634 10.5766 17.746 11.1402 17.746 11.9128C17.746 13.2913 17.322 13.9824 16.476 13.9824C16.031 13.9824 15.706 13.8185 15.498 13.4916L15.5 13.4866ZM13.842 13.0694C13.842 13.5308 13.67 13.9098 13.326 14.2043C12.982 14.4989 12.523 14.6461 11.942 14.6461C11.399 14.6461 10.878 14.4773 10.369 14.1405L10.606 13.6732C11.044 13.8892 11.439 13.9952 11.796 13.9952C12.128 13.9952 12.389 13.9235 12.579 13.7792C12.674 13.7089 12.7506 13.6176 12.8028 13.5127C12.8549 13.4077 12.881 13.2922 12.879 13.1754C12.879 12.8514 12.649 12.5765 12.231 12.3458C11.843 12.1367 11.068 11.7008 11.068 11.7008C10.646 11.3994 10.436 11.0764 10.436 10.5452C10.436 10.1034 10.593 9.74999 10.906 9.48C11.221 9.20706 11.626 9.07256 12.126 9.07256C12.638 9.07256 13.106 9.20608 13.526 9.47509L13.313 9.94242C12.9774 9.79768 12.6155 9.72088 12.249 9.71661C11.966 9.71661 11.747 9.78337 11.595 9.91886C11.5179 9.98159 11.4557 10.0602 11.4128 10.1491C11.37 10.2379 11.3475 10.335 11.347 10.4333C11.347 10.7553 11.581 11.0322 12.013 11.2678C12.406 11.4789 13.2 11.9256 13.2 11.9256C13.633 12.2251 13.848 12.5441 13.848 13.0723L13.842 13.0694ZM23.224 7.32401C22.689 7.31027 22.274 7.36328 21.927 7.50859C21.827 7.54786 21.667 7.54786 21.653 7.67254C21.708 7.72458 21.716 7.80999 21.763 7.88264C21.843 8.0142 21.981 8.18994 22.109 8.28223C22.249 8.39022 22.389 8.49429 22.536 8.58658C22.796 8.74366 23.091 8.83693 23.346 8.995C23.491 9.08729 23.639 9.20412 23.786 9.3023C23.859 9.35139 23.906 9.43975 24 9.47116V9.45153C23.954 9.39262 23.94 9.30721 23.895 9.24143C23.828 9.17565 23.761 9.11674 23.695 9.05194C23.4987 8.79792 23.2644 8.5745 23 8.38924C22.786 8.2459 22.318 8.04562 22.23 7.80508L22.217 7.79134C22.363 7.77857 22.537 7.72654 22.677 7.68727C22.904 7.62836 23.112 7.64113 23.347 7.5832C23.453 7.55669 23.56 7.52429 23.667 7.49091V7.43201C23.547 7.31419 23.457 7.15416 23.333 7.0442C22.9869 6.74718 22.6178 6.47703 22.229 6.2362C22.019 6.10464 21.753 6.02021 21.532 5.90829C21.452 5.86901 21.318 5.84938 21.272 5.7836C21.152 5.64026 21.082 5.44979 20.997 5.27896C20.8006 4.90499 20.6182 4.52414 20.45 4.13715C20.33 3.87993 20.257 3.62368 20.11 3.38806C19.42 2.27177 18.673 1.59533 17.524 0.933606C17.277 0.796157 16.981 0.73725 16.668 0.664598C16.501 0.656744 16.334 0.644962 16.168 0.63809C16.058 0.591946 15.952 0.46726 15.858 0.407372C15.478 0.171744 14.494 -0.338781 14.214 0.336683C14.034 0.762776 14.481 1.18298 14.636 1.39897C14.751 1.54918 14.896 1.72099 14.976 1.88986C15.023 2.00375 15.036 2.12058 15.083 2.23937C15.189 2.52802 15.29 2.85004 15.43 3.12003C15.503 3.25748 15.583 3.4018 15.677 3.5255C15.731 3.59717 15.823 3.63056 15.844 3.74837C15.75 3.88189 15.744 4.07628 15.69 4.23926C15.45 4.98247 15.544 5.90141 15.884 6.44826C15.991 6.61124 16.246 6.97253 16.587 6.8341C16.887 6.71629 16.821 6.34321 16.907 6.01432C16.927 5.93577 16.914 5.88374 16.955 5.83072V5.84545C17.049 6.03003 17.143 6.20576 17.229 6.39034C17.435 6.71236 17.795 7.04617 18.096 7.26903C18.256 7.38685 18.383 7.59105 18.583 7.66371V7.64407H18.568C18.525 7.58713 18.468 7.55964 18.414 7.51349C18.2872 7.39163 18.1702 7.26034 18.064 7.12078C17.7822 6.74282 17.5324 6.34288 17.317 5.92497C17.207 5.7188 17.115 5.49692 17.027 5.29369C16.987 5.21515 16.987 5.09733 16.92 5.05806C16.82 5.2014 16.673 5.32609 16.6 5.50281C16.473 5.78556 16.46 6.13311 16.412 6.49441C16.385 6.50128 16.398 6.49441 16.385 6.50815C16.171 6.4571 16.098 6.23914 16.018 6.05653C15.818 5.59019 15.785 4.84109 15.958 4.30406C16.005 4.16661 16.205 3.73266 16.125 3.6011C16.083 3.47642 15.951 3.40475 15.878 3.30362C15.7841 3.17201 15.7037 3.03158 15.638 2.8844C15.478 2.51722 15.398 2.11076 15.224 1.74357C15.144 1.57373 15.004 1.39602 14.89 1.23992C14.763 1.0632 14.623 0.938515 14.522 0.729395C14.489 0.657726 14.442 0.53893 14.495 0.460388C14.509 0.407372 14.537 0.386754 14.589 0.372028C14.677 0.30134 14.924 0.393627 15.011 0.432898C15.258 0.531076 15.466 0.623363 15.673 0.760812C15.767 0.82561 15.868 0.950296 15.988 0.982695H16.128C16.342 1.02884 16.583 0.99644 16.783 1.05436C17.138 1.16629 17.458 1.32926 17.745 1.50598C18.6293 2.0606 19.3486 2.83487 19.83 3.75033C19.91 3.90153 19.945 4.03996 20.018 4.19704C20.158 4.52103 20.331 4.84796 20.473 5.16115C20.613 5.47041 20.748 5.78556 20.949 6.04181C21.049 6.17926 21.451 6.25093 21.631 6.3226C21.764 6.3815 21.971 6.4355 22.091 6.50717C22.321 6.64462 22.545 6.8017 22.761 6.9529C22.871 7.02751 23.204 7.19147 23.224 7.32401Z" fill="#4479A1"/>
</svg>
