<svg width="20" height="20" viewBox="0 0 20 20" fill="none" xmlns="http://www.w3.org/2000/svg">
<g clip-path="url(#clip0_723_139)">
<path d="M9.99832 20C9.73082 20 9.46415 19.93 9.22999 19.7942L6.78332 18.3467C6.41832 18.1425 6.59665 18.07 6.71665 18.0275C7.20415 17.8584 7.30249 17.8192 7.82332 17.5242C7.87749 17.4934 7.94915 17.505 8.00499 17.5384L9.88499 18.6542C9.95332 18.6917 10.0492 18.6917 10.1117 18.6542L17.4408 14.4242C17.5092 14.385 17.5525 14.3067 17.5525 14.2259V5.76753C17.5525 5.68503 17.5083 5.60752 17.4383 5.56586L10.1125 1.33919C10.045 1.30003 9.95499 1.30003 9.88665 1.33919L2.56249 5.56669C2.49165 5.60752 2.44665 5.68752 2.44665 5.76753V14.2259C2.44665 14.3067 2.49165 14.3834 2.56249 14.4217L4.56999 15.5817C5.65915 16.1267 6.32665 15.485 6.32665 14.84V6.48919C6.32665 6.37086 6.42165 6.27836 6.53999 6.27836H7.46915C7.58499 6.27836 7.68165 6.37169 7.68165 6.48919V14.84C7.68165 16.2942 6.88999 17.1275 5.51165 17.1275C5.08832 17.1275 4.75415 17.1275 3.82332 16.6684L1.89999 15.5625C1.42499 15.2884 1.13165 14.775 1.13165 14.2259V5.76753C1.13165 5.21836 1.42582 4.70502 1.89999 4.43169L9.22915 0.196692C9.69332 -0.0658081 10.3092 -0.0658081 10.7692 0.196692L18.0975 4.43169C18.5725 4.70586 18.8675 5.21836 18.8675 5.76753V14.2259C18.8675 14.775 18.5725 15.2867 18.0975 15.5625L10.7692 19.7942C10.5358 19.93 10.27 20 9.99832 20ZM15.9158 11.6609C15.9158 10.0775 14.8458 9.65586 12.5933 9.35836C10.3175 9.05752 10.0858 8.90169 10.0858 8.36919C10.0858 7.92919 10.2817 7.34169 11.9675 7.34169C13.4733 7.34169 14.0283 7.66586 14.2567 8.68086C14.2767 8.77669 14.3642 8.84669 14.4625 8.84669H15.4133C15.4725 8.84669 15.5283 8.82086 15.5683 8.77919C15.6083 8.73419 15.63 8.67669 15.6242 8.61586C15.4767 6.86752 14.315 6.05253 11.9675 6.05253C9.87749 6.05253 8.63082 6.93419 8.63082 8.41336C8.63082 10.0175 9.87082 10.4609 11.8767 10.6592C14.2767 10.8942 14.4625 11.245 14.4625 11.7167C14.4625 12.5359 13.805 12.885 12.2608 12.885C10.3217 12.885 9.89499 12.3984 9.75165 11.4334C9.73499 11.33 9.64665 11.2542 9.54082 11.2542H8.59332C8.47582 11.2542 8.38165 11.3475 8.38165 11.465C8.38165 12.7 9.05332 14.1717 12.2608 14.1717C14.5842 14.1725 15.9158 13.2584 15.9158 11.6609Z" fill="#5FA04E"/>
</g>
<defs>
<clipPath id="clip0_723_139">
<rect width="20" height="20" fill="white"/>
</clipPath>
</defs>
</svg>
