<svg width="20" height="20" viewBox="0 0 20 20" fill="none" xmlns="http://www.w3.org/2000/svg">
<path d="M3.71583 3.50664C4.3375 4.01164 4.57083 3.97331 5.73917 3.89498L16.7517 3.23414C16.985 3.23414 16.7908 3.00081 16.7133 2.96248L14.8833 1.63998C14.5333 1.36831 14.0658 1.05664 13.1708 1.13414L2.50833 1.91248C2.12 1.95081 2.04167 2.14581 2.19667 2.30081L3.71583 3.50664ZM4.37667 6.07331V17.66C4.37667 18.2825 4.6875 18.5158 5.38833 18.4766L17.4908 17.7766C18.1917 17.7383 18.27 17.31 18.27 16.8041V5.29498C18.27 4.78998 18.0758 4.51748 17.6467 4.55581L4.99917 5.29498C4.5325 5.33414 4.37667 5.56831 4.37667 6.07331ZM16.3242 6.69414C16.4017 7.04414 16.3242 7.39414 15.9742 7.43414L15.3908 7.55081V16.1041C14.8842 16.3766 14.4175 16.5325 14.0283 16.5325C13.405 16.5325 13.2492 16.3375 12.7825 15.755L8.96833 9.76664V15.56L10.175 15.8333C10.175 15.8333 10.175 16.5333 9.20167 16.5333L6.51667 16.6883C6.43917 16.5333 6.51667 16.1441 6.78917 16.0666L7.48917 15.8725V8.21164L6.51833 8.13331C6.44 7.78331 6.635 7.27831 7.17917 7.23914L10.0592 7.04498L14.0292 13.1108V7.74414L13.0167 7.62831C12.9392 7.19998 13.25 6.88914 13.6392 6.85081L16.3242 6.69414ZM1.61333 0.862476L12.705 0.0458097C14.0667 -0.0708569 14.4175 0.00664306 15.2733 0.629143L18.8142 3.11748C19.3975 3.54498 19.5925 3.66164 19.5925 4.12831V17.7766C19.5925 18.6316 19.2817 19.1383 18.1925 19.215L5.31083 19.9933C4.49417 20.0325 4.10417 19.9158 3.67583 19.3708L1.06833 15.9875C0.601668 15.365 0.407501 14.8991 0.407501 14.3541V2.22248C0.407501 1.52331 0.719168 0.939143 1.61333 0.862476Z" fill="#B3B3B3"/>
</svg>
