<svg width="20" height="20" viewBox="0 0 20 20" fill="none" xmlns="http://www.w3.org/2000/svg">
<path d="M7.08082 15.2708H13.2033C16.1133 15.2 18.4033 12.7692 18.3317 9.87583C18.2608 7.05416 15.99 4.80083 13.2033 4.72999H7.08082C4.17082 4.65916 1.73915 6.94833 1.66832 9.85833C1.65015 10.5495 1.76845 11.2374 2.01645 11.8828C2.26446 12.5281 2.6373 13.1183 3.11364 13.6194C3.58997 14.1205 4.16046 14.5227 4.79244 14.8031C5.42441 15.0835 6.10548 15.2365 6.79665 15.2533C6.88582 15.2708 6.97499 15.2708 7.08082 15.2708ZM13.06 13.4075H7.20499C5.32415 13.3542 3.85082 11.7742 3.90499 9.89416C3.97499 8.10166 5.41332 6.64666 7.20499 6.59333H13.0608C14.9425 6.53999 16.5217 8.01249 16.575 9.89333C16.6283 11.775 15.155 13.3542 13.2742 13.4075H13.06Z" fill="#C74634"/>
</svg>
