<svg width="20" height="18" viewBox="0 0 20 18" fill="none" xmlns="http://www.w3.org/2000/svg">
<path d="M16.444 5.8282C16.2311 5.75442 16.0165 5.68605 15.8002 5.62317C15.8366 5.47317 15.87 5.32499 15.8997 5.17941C16.387 2.7888 16.0684 0.862881 14.9802 0.228776C13.9369 -0.379119 12.2305 0.254749 10.5073 1.7703C10.3374 1.91993 10.1714 2.07387 10.0092 2.23199C9.90067 2.12685 9.79021 2.02375 9.67789 1.92275C7.8718 0.302276 6.06148 -0.380698 4.97445 0.255223C3.93203 0.865013 3.62336 2.67551 4.06211 4.94114C4.10576 5.16553 4.15505 5.38876 4.20992 5.61062C3.95367 5.6842 3.70641 5.76251 3.46977 5.84588C1.35227 6.59193 0 7.76107 0 8.97378C0 10.2263 1.45172 11.4826 3.65719 12.2443C3.83599 12.3058 4.01628 12.3628 4.19789 12.4152C4.13893 12.6542 4.08657 12.8948 4.04086 13.1367C3.62258 15.363 3.94922 17.1307 4.98883 17.7366C6.06258 18.3624 7.86477 17.7193 9.61953 16.1691C9.76181 16.0431 9.90097 15.9135 10.0369 15.7805C10.2125 15.9517 10.3927 16.1179 10.5775 16.2789C12.2773 17.757 13.9561 18.3538 14.9947 17.7463C16.0674 17.1187 16.4161 15.2197 15.9634 12.9093C15.9278 12.7283 15.8878 12.5482 15.8435 12.3691C15.9701 12.3313 16.0943 12.2923 16.2154 12.2517C18.5082 11.4841 20 10.243 20 8.97378C20 7.75664 18.6041 6.57962 16.444 5.8282ZM15.9467 11.4322C15.8372 11.4687 15.7253 11.5041 15.6108 11.5384C15.3577 10.7286 15.0161 9.86762 14.598 8.97796C14.997 8.10954 15.3254 7.25951 15.5714 6.45504C15.776 6.51488 15.9745 6.57796 16.1659 6.64451C18.0167 7.28841 19.1456 8.24028 19.1456 8.97378C19.1456 9.75504 17.9264 10.7693 15.9467 11.4322ZM15.1253 13.077C15.3255 14.0986 15.354 15.0223 15.2214 15.7444C15.1023 16.3933 14.8628 16.8258 14.5666 16.9991C13.9363 17.3678 12.5884 16.8886 11.1348 15.6245C10.9629 15.4747 10.7952 15.3202 10.6319 15.161C11.1955 14.5382 11.7587 13.8142 12.3084 13.01C13.2752 12.9234 14.1887 12.7816 15.017 12.5881C15.0579 12.7545 15.094 12.9175 15.1253 13.077ZM6.81844 16.9354C6.20266 17.1551 5.71219 17.1614 5.4157 16.9887C4.78484 16.621 4.52258 15.2016 4.88031 13.2977C4.92284 13.0727 4.97153 12.849 5.02633 12.6267C5.84555 12.8099 6.75234 12.9416 7.72148 13.021C8.27492 13.8079 8.85437 14.5311 9.43836 15.1644C9.31425 15.2858 9.1872 15.404 9.05734 15.5191C8.28133 16.2045 7.50375 16.6908 6.81844 16.9354ZM3.93359 11.4274C2.95836 11.0905 2.15297 10.6528 1.60094 10.175C1.10484 9.7458 0.854453 9.31957 0.854453 8.97378C0.854453 8.23783 1.94016 7.29914 3.75102 6.66117C3.97078 6.5838 4.20078 6.51078 4.43945 6.44225C4.68977 7.26488 5.01805 8.12501 5.41422 8.99478C5.01289 9.87741 4.67992 10.7513 4.42719 11.5836C4.26142 11.5356 4.09684 11.4835 3.93359 11.4274ZM4.90063 4.77528C4.52477 2.8342 4.77437 1.36996 5.40258 1.00246C6.07164 0.611039 7.55117 1.16912 9.11062 2.56838C9.21232 2.65983 9.31236 2.75313 9.4107 2.84825C8.82961 3.4788 8.25547 4.19667 7.70695 4.97888C6.76633 5.06699 5.86594 5.20846 5.03813 5.39801C4.98711 5.19166 4.94126 4.98397 4.90063 4.77528ZM13.5277 6.92809C13.3322 6.5868 13.1294 6.2498 12.9195 5.91733C13.5577 5.99888 14.1691 6.10712 14.7432 6.23943C14.5709 6.79775 14.356 7.38141 14.1031 7.97983C13.9183 7.62541 13.7264 7.27476 13.5277 6.92809ZM10.0096 3.46538C10.4037 3.89683 10.7984 4.37849 11.1866 4.90112C10.3991 4.86353 9.61025 4.86337 8.82273 4.90064C9.21133 4.38283 9.60938 3.9018 10.0096 3.46538ZM6.46891 6.93393C6.27268 7.27781 6.08442 7.62628 5.9043 7.97904C5.65555 7.38275 5.44266 6.79641 5.26883 6.2302C5.83945 6.1012 6.44797 5.99572 7.08203 5.91567C6.86981 6.25018 6.66538 6.58974 6.46891 6.93393ZM7.10023 12.0932C6.44516 12.0193 5.8275 11.9193 5.25703 11.7938C5.43359 11.2175 5.65117 10.6186 5.90531 10.0096C6.08615 10.3626 6.27519 10.7113 6.47227 11.0553C6.67492 11.409 6.88477 11.7554 7.10023 12.0932ZM10.0332 14.543C9.6282 14.1015 9.2243 13.613 8.82984 13.0877C9.21281 13.1029 9.6032 13.1106 10 13.1106C10.4077 13.1106 10.8106 13.1014 11.2073 13.0835C10.8178 13.6183 10.4246 14.1075 10.0332 14.543ZM14.1112 9.97846C14.3785 10.5942 14.6038 11.1899 14.7827 11.7564C14.2029 11.8901 13.5768 11.9978 12.9171 12.0778C13.1285 11.7391 13.3332 11.3963 13.5311 11.0494C13.7323 10.6968 13.9257 10.3397 14.1112 9.97846ZM12.791 10.618C12.488 11.1498 12.1681 11.6715 11.8316 12.1824C11.222 12.226 10.6111 12.2477 10 12.2473C9.37758 12.2473 8.77219 12.2278 8.18922 12.1895C7.84391 11.6799 7.51782 11.1573 7.21164 10.6228C6.90686 10.0911 6.62228 9.54785 6.35836 8.9943C6.62162 8.44063 6.90541 7.89716 7.20914 7.36507L7.20906 7.36514C7.51264 6.83289 7.83612 6.31248 8.17883 5.80507C8.77359 5.75959 9.38352 5.73591 9.99992 5.73591C10.6191 5.73591 11.2299 5.75983 11.8245 5.80562C12.1638 6.31228 12.4852 6.83089 12.7882 7.36049C13.0929 7.89144 13.3804 8.43225 13.6504 8.98207C13.3832 9.5375 13.0966 10.0832 12.791 10.618ZM14.5535 0.976644C15.2232 1.36696 15.4837 2.94093 15.0629 5.00501C15.0359 5.1368 15.006 5.27075 14.973 5.40685C14.1432 5.21328 13.2422 5.06935 12.2988 4.97991C11.7493 4.18909 11.1798 3.47012 10.6082 2.8477C10.758 2.70177 10.9114 2.55962 11.0682 2.42138C12.5448 1.12293 13.9248 0.610249 14.5535 0.976644ZM10 7.16904C10.9863 7.16904 11.7859 7.97707 11.7859 8.97378C11.7859 9.97049 10.9863 10.7785 10 10.7785C9.01367 10.7785 8.21406 9.97049 8.21406 8.97378C8.21406 7.97707 9.01367 7.16904 10 7.16904Z" fill="#00D8FF"/>
</svg>
