<svg width="20" height="20" viewBox="0 0 20 20" fill="none" xmlns="http://www.w3.org/2000/svg">
<path d="M19.7442 8.92169L15.8025 2.10086C15.4608 1.50919 14.6217 1.02252 13.9358 1.02252H6.06083C5.3775 1.02252 4.535 1.50919 4.19417 2.10086L0.254999 8.92169C-0.0866679 9.51336 -0.0866679 10.4825 0.254999 11.075L4.1925 17.8992C4.53417 18.4909 5.37333 18.9775 6.05917 18.9775H13.9383C14.6217 18.9775 15.46 18.4909 15.805 17.8992L19.7433 11.0742C20.085 10.4825 20.085 9.51336 19.7433 8.92169H19.7442ZM9.14667 4.79586C9.14667 4.34836 9.51167 3.98336 9.95833 3.98336C10.405 3.98336 10.7708 4.34836 10.7708 4.79586V9.64669C10.7576 9.85297 10.6663 10.0465 10.5156 10.1879C10.3648 10.3293 10.1659 10.408 9.95917 10.408C9.75247 10.408 9.55352 10.3293 9.40276 10.1879C9.25199 10.0465 9.16073 9.85297 9.1475 9.64669L9.14667 4.79586ZM9.95833 15.1542C8.49842 15.1522 7.09889 14.5713 6.06672 13.5388C5.03456 12.5063 4.45404 11.1066 4.4525 9.64669C4.4546 8.78802 4.65651 7.94162 5.04226 7.17447C5.428 6.40732 5.98699 5.74047 6.675 5.22669C6.7512 5.16992 6.83787 5.12876 6.93002 5.10556C7.02217 5.08237 7.11799 5.07761 7.21199 5.09154C7.30599 5.10548 7.39631 5.13785 7.47777 5.18678C7.55922 5.23571 7.63021 5.30025 7.68667 5.37669C7.74339 5.45276 7.78456 5.53928 7.80781 5.63129C7.83106 5.72329 7.83594 5.81898 7.82216 5.91287C7.80838 6.00676 7.77622 6.09702 7.72752 6.17846C7.67881 6.25991 7.61453 6.33095 7.53833 6.38752C6.70351 7.04065 6.15695 7.99414 6.01524 9.04458C5.87353 10.095 6.1479 11.1592 6.77982 12.0102C7.41173 12.8612 8.35116 13.4316 9.3977 13.5997C10.4442 13.7678 11.515 13.5203 12.3817 12.91C12.8904 12.5315 13.3035 12.0393 13.5882 11.4727C13.8728 10.9061 14.0209 10.2808 14.0208 9.64669C14.019 9.01023 13.8683 8.38302 13.581 7.81512C13.2936 7.24722 12.8775 6.75435 12.3658 6.37586C12.2118 6.26167 12.1093 6.09111 12.0807 5.90151C12.0521 5.71191 12.0998 5.51871 12.2133 5.36419C12.3275 5.21016 12.4981 5.10763 12.6877 5.07905C12.8773 5.05047 13.0705 5.09816 13.225 5.21169C13.9186 5.72478 14.4824 6.39316 14.8712 7.16331C15.26 7.93345 15.4631 8.78395 15.4642 9.64669C15.4631 11.1068 14.8825 12.5068 13.8501 13.5393C12.8176 14.5717 11.4176 15.1523 9.9575 15.1534" fill="#6DB33F"/>
</svg>
