<svg width="20" height="24" viewBox="0 0 20 24" fill="none" xmlns="http://www.w3.org/2000/svg">
<g clip-path="url(#clip0_723_136)">
<path d="M10.001 4.79999C7.33431 4.79999 5.66764 6.39999 5.00098 9.59999C6.00098 7.99999 7.16764 7.39999 8.50098 7.79999C9.26181 8.02799 9.80514 8.68999 10.4076 9.42399C11.3885 10.618 12.5226 12 15.001 12C17.6676 12 19.3343 10.4 20.001 7.19999C19.001 8.79999 17.8343 9.39999 16.501 8.99999C15.7401 8.77199 15.1968 8.10999 14.5943 7.37599C13.6143 6.18199 12.4801 4.79999 10.001 4.79999ZM5.00098 12C2.33431 12 0.667643 13.6 0.000976562 16.8C1.00098 15.2 2.16764 14.6 3.50098 15C4.26181 15.228 4.80514 15.89 5.40764 16.624C6.38848 17.818 7.52264 19.2 10.001 19.2C12.6676 19.2 14.3343 17.6 15.001 14.4C14.001 16 12.8343 16.6 11.501 16.2C10.7401 15.972 10.1968 15.31 9.59431 14.576C8.61431 13.382 7.48014 12 5.00098 12Z" fill="#06B6D4"/>
</g>
<defs>
<clipPath id="clip0_723_136">
<rect width="20" height="24" fill="white"/>
</clipPath>
</defs>
</svg>
