<svg width="38" height="19" viewBox="0 0 38 19" fill="none" xmlns="http://www.w3.org/2000/svg">
<path d="M6.39844 3.79688L10.7188 15H9.11719L8.125 12.4219H3.07031L2.07812 15H0.476562L4.79688 3.79688H6.39844ZM3.67969 10.8203H7.50781L5.60156 5.88281L3.67969 10.8203ZM22.2578 3.79688V15H20.6562V10.2031H14.2422V15H12.6406V3.79688H14.2422V8.60156H20.6562V3.79688H22.2578ZM32.4375 9.15625C32.6719 9.22917 32.8854 9.33333 33.0781 9.46875C33.2708 9.60417 33.4349 9.77865 33.5703 9.99219C33.7057 10.2005 33.8099 10.4479 33.8828 10.7344C33.9557 11.0208 33.9922 11.349 33.9922 11.7188V12.2812C33.9922 14.0938 33.0859 15 31.2734 15H25.1406V3.79688H30.9531C32.7656 3.79688 33.6719 4.70573 33.6719 6.52344V6.72656C33.6719 7.35677 33.5703 7.8724 33.3672 8.27344C33.1693 8.66927 32.8594 8.96354 32.4375 9.15625ZM26.7109 10.1172V13.4297H31.2266C31.6484 13.4297 31.9531 13.3307 32.1406 13.1328C32.3281 12.9349 32.4219 12.625 32.4219 12.2031V11.3359C32.4219 10.9089 32.3281 10.599 32.1406 10.4062C31.9531 10.2135 31.6484 10.1172 31.2266 10.1172H26.7109ZM26.7109 5.36719V8.55469H31.0156C31.401 8.53906 31.6771 8.4349 31.8438 8.24219C32.0156 8.04427 32.1016 7.74219 32.1016 7.33594V6.60156C32.1016 6.17448 32.0078 5.86198 31.8203 5.66406C31.6328 5.46615 31.3281 5.36719 30.9062 5.36719H26.7109Z" fill="#0B0B0B"/>
<circle cx="36" cy="2" r="2" fill="#AA70E0"/>
</svg>
